<mxfile host="app.diagrams.net" modified="2022-02-18T04:09:45.003Z" agent="5.0 (Macintosh; Intel Mac OS X 10_15_7) AppleWebKit/537.36 (KHTML, like Gecko) Chrome/98.0.4758.102 Safari/537.36" etag="-SmvZJwFFPVWwb-ZxQzH" version="16.5.6" type="github">
  <diagram id="GKse_5E-0F53ANy1-TaB" name="Page-1">
    <mxGraphModel dx="1901" dy="1059" grid="1" gridSize="11" guides="1" tooltips="1" connect="1" arrows="1" fold="1" page="1" pageScale="1" pageWidth="3300" pageHeight="4681" math="0" shadow="0">
      <root>
        <mxCell id="0" />
        <mxCell id="1" parent="0" />
        <mxCell id="5dntn2dUdffPDas5DT_r-3" value="&lt;div style=&quot;background-color: rgb(255 , 255 , 255) ; font-family: &amp;#34;menlo&amp;#34; , &amp;#34;monaco&amp;#34; , &amp;#34;courier new&amp;#34; , monospace ; line-height: 18px ; font-size: 16px&quot;&gt;&lt;font style=&quot;font-size: 16px&quot;&gt;src/setup/setupColors.ts&lt;/font&gt;&lt;/div&gt;&lt;div style=&quot;background-color: rgb(255 , 255 , 255) ; font-family: &amp;#34;menlo&amp;#34; , &amp;#34;monaco&amp;#34; , &amp;#34;courier new&amp;#34; , monospace ; line-height: 18px ; font-size: 16px&quot;&gt;&lt;font style=&quot;font-size: 16px&quot;&gt;setupColors()&lt;/font&gt;&lt;/div&gt;" style="rounded=0;whiteSpace=wrap;html=1;" vertex="1" parent="1">
          <mxGeometry x="352" y="440" width="278" height="55" as="geometry" />
        </mxCell>
        <mxCell id="5dntn2dUdffPDas5DT_r-4" value="getCategoricalSchemeRegistry" style="swimlane;fontStyle=0;align=center;verticalAlign=top;childLayout=stackLayout;horizontal=1;startSize=26;horizontalStack=0;resizeParent=1;resizeParentMax=0;resizeLast=0;collapsible=1;marginBottom=0;fontSize=16;fontColor=#000000;labelBackgroundColor=default;" vertex="1" parent="1">
          <mxGeometry x="800" y="500" width="250" height="86" as="geometry" />
        </mxCell>
        <mxCell id="5dntn2dUdffPDas5DT_r-5" value="+ field: type" style="text;strokeColor=none;fillColor=none;align=left;verticalAlign=top;spacingLeft=4;spacingRight=4;overflow=hidden;rotatable=0;points=[[0,0.5],[1,0.5]];portConstraint=eastwest;fontSize=14;fontColor=#330000;" vertex="1" parent="5dntn2dUdffPDas5DT_r-4">
          <mxGeometry y="26" width="250" height="26" as="geometry" />
        </mxCell>
        <mxCell id="5dntn2dUdffPDas5DT_r-6" value="" style="line;strokeWidth=1;fillColor=none;align=left;verticalAlign=middle;spacingTop=-1;spacingLeft=3;spacingRight=3;rotatable=0;labelPosition=right;points=[];portConstraint=eastwest;fontSize=14;fontColor=#330000;" vertex="1" parent="5dntn2dUdffPDas5DT_r-4">
          <mxGeometry y="52" width="250" height="8" as="geometry" />
        </mxCell>
        <mxCell id="5dntn2dUdffPDas5DT_r-7" value="+ method(type): type" style="text;strokeColor=none;fillColor=none;align=left;verticalAlign=top;spacingLeft=4;spacingRight=4;overflow=hidden;rotatable=0;points=[[0,0.5],[1,0.5]];portConstraint=eastwest;fontSize=14;fontColor=#330000;" vertex="1" parent="5dntn2dUdffPDas5DT_r-4">
          <mxGeometry y="60" width="250" height="26" as="geometry" />
        </mxCell>
        <mxCell id="5dntn2dUdffPDas5DT_r-8" value="getCategoricalSchemeRegistry" style="swimlane;fontStyle=1;align=center;verticalAlign=top;childLayout=stackLayout;horizontal=1;startSize=26;horizontalStack=0;resizeParent=1;resizeParentMax=0;resizeLast=0;collapsible=1;marginBottom=0;fontSize=16;fontColor=#000000;" vertex="1" parent="1">
          <mxGeometry x="800" y="330" width="240" height="86" as="geometry" />
        </mxCell>
        <mxCell id="5dntn2dUdffPDas5DT_r-9" value="+ field: type" style="text;strokeColor=none;fillColor=none;align=left;verticalAlign=top;spacingLeft=4;spacingRight=4;overflow=hidden;rotatable=0;points=[[0,0.5],[1,0.5]];portConstraint=eastwest;fontSize=14;fontColor=#330000;" vertex="1" parent="5dntn2dUdffPDas5DT_r-8">
          <mxGeometry y="26" width="240" height="26" as="geometry" />
        </mxCell>
        <mxCell id="5dntn2dUdffPDas5DT_r-10" value="" style="line;strokeWidth=1;fillColor=none;align=left;verticalAlign=middle;spacingTop=-1;spacingLeft=3;spacingRight=3;rotatable=0;labelPosition=right;points=[];portConstraint=eastwest;fontSize=14;fontColor=#330000;" vertex="1" parent="5dntn2dUdffPDas5DT_r-8">
          <mxGeometry y="52" width="240" height="8" as="geometry" />
        </mxCell>
        <mxCell id="5dntn2dUdffPDas5DT_r-11" value="+ method(type): type" style="text;strokeColor=none;fillColor=none;align=left;verticalAlign=top;spacingLeft=4;spacingRight=4;overflow=hidden;rotatable=0;points=[[0,0.5],[1,0.5]];portConstraint=eastwest;fontSize=14;fontColor=#330000;" vertex="1" parent="5dntn2dUdffPDas5DT_r-8">
          <mxGeometry y="60" width="240" height="26" as="geometry" />
        </mxCell>
        <mxCell id="5dntn2dUdffPDas5DT_r-12" value="CategoricalScheme" style="swimlane;fontStyle=1;align=center;verticalAlign=top;childLayout=stackLayout;horizontal=1;startSize=26;horizontalStack=0;resizeParent=1;resizeParentMax=0;resizeLast=0;collapsible=1;marginBottom=0;fontSize=16;fontColor=#000000;" vertex="1" parent="1">
          <mxGeometry x="1280" y="500" width="160" height="86" as="geometry" />
        </mxCell>
        <mxCell id="5dntn2dUdffPDas5DT_r-13" value="+ field: type" style="text;strokeColor=none;fillColor=none;align=left;verticalAlign=top;spacingLeft=4;spacingRight=4;overflow=hidden;rotatable=0;points=[[0,0.5],[1,0.5]];portConstraint=eastwest;fontSize=14;fontColor=#330000;" vertex="1" parent="5dntn2dUdffPDas5DT_r-12">
          <mxGeometry y="26" width="160" height="26" as="geometry" />
        </mxCell>
        <mxCell id="5dntn2dUdffPDas5DT_r-14" value="" style="line;strokeWidth=1;fillColor=none;align=left;verticalAlign=middle;spacingTop=-1;spacingLeft=3;spacingRight=3;rotatable=0;labelPosition=right;points=[];portConstraint=eastwest;fontSize=14;fontColor=#330000;" vertex="1" parent="5dntn2dUdffPDas5DT_r-12">
          <mxGeometry y="52" width="160" height="8" as="geometry" />
        </mxCell>
        <mxCell id="5dntn2dUdffPDas5DT_r-15" value="+ method(type): type" style="text;strokeColor=none;fillColor=none;align=left;verticalAlign=top;spacingLeft=4;spacingRight=4;overflow=hidden;rotatable=0;points=[[0,0.5],[1,0.5]];portConstraint=eastwest;fontSize=14;fontColor=#330000;" vertex="1" parent="5dntn2dUdffPDas5DT_r-12">
          <mxGeometry y="60" width="160" height="26" as="geometry" />
        </mxCell>
        <mxCell id="5dntn2dUdffPDas5DT_r-16" value="SequentialScheme" style="swimlane;fontStyle=1;align=center;verticalAlign=top;childLayout=stackLayout;horizontal=1;startSize=26;horizontalStack=0;resizeParent=1;resizeParentMax=0;resizeLast=0;collapsible=1;marginBottom=0;fontSize=16;fontColor=#000000;" vertex="1" parent="1">
          <mxGeometry x="1280" y="330" width="160" height="86" as="geometry" />
        </mxCell>
        <mxCell id="5dntn2dUdffPDas5DT_r-17" value="+ field: type" style="text;strokeColor=none;fillColor=none;align=left;verticalAlign=top;spacingLeft=4;spacingRight=4;overflow=hidden;rotatable=0;points=[[0,0.5],[1,0.5]];portConstraint=eastwest;fontSize=14;fontColor=#330000;" vertex="1" parent="5dntn2dUdffPDas5DT_r-16">
          <mxGeometry y="26" width="160" height="26" as="geometry" />
        </mxCell>
        <mxCell id="5dntn2dUdffPDas5DT_r-18" value="" style="line;strokeWidth=1;fillColor=none;align=left;verticalAlign=middle;spacingTop=-1;spacingLeft=3;spacingRight=3;rotatable=0;labelPosition=right;points=[];portConstraint=eastwest;fontSize=14;fontColor=#330000;" vertex="1" parent="5dntn2dUdffPDas5DT_r-16">
          <mxGeometry y="52" width="160" height="8" as="geometry" />
        </mxCell>
        <mxCell id="5dntn2dUdffPDas5DT_r-19" value="+ method(type): type" style="text;strokeColor=none;fillColor=none;align=left;verticalAlign=top;spacingLeft=4;spacingRight=4;overflow=hidden;rotatable=0;points=[[0,0.5],[1,0.5]];portConstraint=eastwest;fontSize=14;fontColor=#330000;" vertex="1" parent="5dntn2dUdffPDas5DT_r-16">
          <mxGeometry y="60" width="160" height="26" as="geometry" />
        </mxCell>
        <mxCell id="5dntn2dUdffPDas5DT_r-22" value="" style="endArrow=diamondThin;endFill=0;endSize=24;html=1;rounded=0;fontSize=14;fontColor=#330000;exitX=0;exitY=0.5;exitDx=0;exitDy=0;entryX=1;entryY=0.5;entryDx=0;entryDy=0;" edge="1" parent="1" source="5dntn2dUdffPDas5DT_r-13" target="5dntn2dUdffPDas5DT_r-5">
          <mxGeometry width="160" relative="1" as="geometry">
            <mxPoint x="910" y="770" as="sourcePoint" />
            <mxPoint x="1070" y="770" as="targetPoint" />
          </mxGeometry>
        </mxCell>
        <mxCell id="5dntn2dUdffPDas5DT_r-23" value="" style="endArrow=diamondThin;endFill=0;endSize=24;html=1;rounded=0;fontSize=14;fontColor=#330000;exitX=0;exitY=0.5;exitDx=0;exitDy=0;entryX=1;entryY=0.5;entryDx=0;entryDy=0;" edge="1" parent="1" source="5dntn2dUdffPDas5DT_r-17" target="5dntn2dUdffPDas5DT_r-9">
          <mxGeometry width="160" relative="1" as="geometry">
            <mxPoint x="910" y="770" as="sourcePoint" />
            <mxPoint x="1070" y="770" as="targetPoint" />
          </mxGeometry>
        </mxCell>
        <mxCell id="5dntn2dUdffPDas5DT_r-25" value="" style="endArrow=classic;html=1;rounded=0;fontSize=14;fontColor=#330000;exitX=0;exitY=0.5;exitDx=0;exitDy=0;entryX=1;entryY=0.5;entryDx=0;entryDy=0;" edge="1" parent="1" source="5dntn2dUdffPDas5DT_r-5" target="5dntn2dUdffPDas5DT_r-3">
          <mxGeometry width="50" height="50" relative="1" as="geometry">
            <mxPoint x="960" y="790" as="sourcePoint" />
            <mxPoint x="1010" y="740" as="targetPoint" />
          </mxGeometry>
        </mxCell>
        <mxCell id="5dntn2dUdffPDas5DT_r-26" value="" style="endArrow=classic;html=1;rounded=0;fontSize=14;fontColor=#330000;entryX=1;entryY=0.5;entryDx=0;entryDy=0;exitX=0;exitY=0.5;exitDx=0;exitDy=0;" edge="1" parent="1" source="5dntn2dUdffPDas5DT_r-9" target="5dntn2dUdffPDas5DT_r-3">
          <mxGeometry width="50" height="50" relative="1" as="geometry">
            <mxPoint x="650" y="330" as="sourcePoint" />
            <mxPoint x="840" y="330" as="targetPoint" />
          </mxGeometry>
        </mxCell>
        <mxCell id="5dntn2dUdffPDas5DT_r-37" style="edgeStyle=orthogonalEdgeStyle;rounded=0;orthogonalLoop=1;jettySize=auto;html=1;exitX=0;exitY=0.5;exitDx=0;exitDy=0;entryX=0;entryY=0.5;entryDx=0;entryDy=0;entryPerimeter=0;fontSize=14;fontColor=#330000;" edge="1" parent="1" source="5dntn2dUdffPDas5DT_r-27" target="5dntn2dUdffPDas5DT_r-30">
          <mxGeometry relative="1" as="geometry" />
        </mxCell>
        <mxCell id="5dntn2dUdffPDas5DT_r-27" value="&lt;font color=&quot;#000000&quot; style=&quot;font-size: 16px&quot;&gt;String control&lt;/font&gt;" style="rounded=0;whiteSpace=wrap;html=1;fontSize=14;fontColor=#330000;" vertex="1" parent="1">
          <mxGeometry x="380" y="790" width="220" height="40" as="geometry" />
        </mxCell>
        <mxCell id="5dntn2dUdffPDas5DT_r-28" value="&lt;div style=&quot;background-color: rgb(255 , 255 , 255) ; font-family: &amp;#34;menlo&amp;#34; , &amp;#34;monaco&amp;#34; , &amp;#34;courier new&amp;#34; , monospace ; line-height: 18px ; font-size: 16px&quot;&gt;&lt;font style=&quot;font-size: 16px&quot; color=&quot;#000000&quot;&gt;src/explore/controlUtils.js&lt;/font&gt;&lt;/div&gt;&lt;div style=&quot;background-color: rgb(255 , 255 , 255) ; font-family: &amp;#34;menlo&amp;#34; , &amp;#34;monaco&amp;#34; , &amp;#34;courier new&amp;#34; , monospace ; line-height: 18px ; font-size: 16px&quot;&gt;&lt;font style=&quot;font-size: 16px&quot; color=&quot;#000000&quot;&gt;expandControlConfig()&lt;/font&gt;&lt;/div&gt;" style="rounded=0;whiteSpace=wrap;html=1;fontSize=14;fontColor=#330000;" vertex="1" parent="1">
          <mxGeometry x="693" y="902" width="363" height="55" as="geometry" />
        </mxCell>
        <mxCell id="5dntn2dUdffPDas5DT_r-29" value="&lt;font color=&quot;#000000&quot; style=&quot;font-size: 16px;&quot;&gt;src/explore/components/ControlPanelsContainer.jsx&lt;br style=&quot;font-size: 16px;&quot;&gt;sectionsToRender()&lt;/font&gt;" style="rounded=0;whiteSpace=wrap;html=1;fontSize=16;fontColor=#330000;" vertex="1" parent="1">
          <mxGeometry x="682" y="784.5" width="385" height="62.5" as="geometry" />
        </mxCell>
        <mxCell id="5dntn2dUdffPDas5DT_r-30" value="" style="strokeWidth=2;html=1;shape=mxgraph.flowchart.annotation_2;align=left;labelPosition=right;pointerEvents=1;fontSize=14;fontColor=#330000;rotation=-180;" vertex="1" parent="1">
          <mxGeometry x="187" y="745" width="193" height="130" as="geometry" />
        </mxCell>
        <mxCell id="5dntn2dUdffPDas5DT_r-36" value="&lt;p class=&quot;md-end-block md-p md-focus&quot; style=&quot;box-sizing: border-box ; line-height: inherit ; margin: 0.8em 0px ; position: relative ; font-family: &amp;#34;open sans&amp;#34; , &amp;#34;clear sans&amp;#34; , &amp;#34;helvetica neue&amp;#34; , &amp;#34;helvetica&amp;#34; , &amp;#34;arial&amp;#34; , &amp;#34;segoe ui emoji&amp;#34; , sans-serif ; font-size: 16px ; background-color: rgb(255 , 255 , 255)&quot;&gt;&lt;span class=&quot;md-plain&quot; style=&quot;box-sizing: border-box&quot;&gt;&lt;font color=&quot;#000000&quot;&gt;controlSetRows: [&lt;/font&gt;&lt;/span&gt;&lt;/p&gt;&lt;p class=&quot;md-end-block md-p&quot; style=&quot;box-sizing: border-box ; line-height: inherit ; margin: 0.8em 0px ; position: relative ; font-family: &amp;#34;open sans&amp;#34; , &amp;#34;clear sans&amp;#34; , &amp;#34;helvetica neue&amp;#34; , &amp;#34;helvetica&amp;#34; , &amp;#34;arial&amp;#34; , &amp;#34;segoe ui emoji&amp;#34; , sans-serif ; font-size: 16px ; background-color: rgb(255 , 255 , 255)&quot;&gt;&lt;span class=&quot;md-plain&quot; style=&quot;box-sizing: border-box&quot;&gt;&lt;font color=&quot;#000000&quot;&gt;        &lt;span style=&quot;white-space: pre&quot;&gt;	&lt;/span&gt;[&#39;color_scheme&#39;],&lt;/font&gt;&lt;/span&gt;&lt;/p&gt;&lt;p class=&quot;md-end-block md-p&quot; style=&quot;box-sizing: border-box ; line-height: inherit ; margin: 0.8em 0px ; position: relative ; font-family: &amp;#34;open sans&amp;#34; , &amp;#34;clear sans&amp;#34; , &amp;#34;helvetica neue&amp;#34; , &amp;#34;helvetica&amp;#34; , &amp;#34;arial&amp;#34; , &amp;#34;segoe ui emoji&amp;#34; , sans-serif ; font-size: 16px ; background-color: rgb(255 , 255 , 255)&quot;&gt;&lt;span class=&quot;md-plain md-expand&quot; style=&quot;box-sizing: border-box&quot;&gt;&lt;font color=&quot;#000000&quot;&gt;        &lt;span style=&quot;white-space: pre&quot;&gt;	&lt;/span&gt;[&#39;label_colors&#39;]&lt;/font&gt;&lt;/span&gt;&lt;/p&gt;&lt;p class=&quot;md-end-block md-p&quot; style=&quot;box-sizing: border-box ; line-height: inherit ; margin: 0.8em 0px ; position: relative ; font-family: &amp;#34;open sans&amp;#34; , &amp;#34;clear sans&amp;#34; , &amp;#34;helvetica neue&amp;#34; , &amp;#34;helvetica&amp;#34; , &amp;#34;arial&amp;#34; , &amp;#34;segoe ui emoji&amp;#34; , sans-serif ; font-size: 16px ; background-color: rgb(255 , 255 , 255)&quot;&gt;&lt;span class=&quot;md-plain&quot; style=&quot;box-sizing: border-box&quot;&gt;&lt;font color=&quot;#000000&quot;&gt;]&lt;/font&gt;&lt;/span&gt;&lt;/p&gt;" style="text;html=1;align=left;verticalAlign=middle;resizable=0;points=[];autosize=1;strokeColor=none;fillColor=none;fontSize=14;fontColor=#330000;" vertex="1" parent="1">
          <mxGeometry x="119" y="745" width="176" height="143" as="geometry" />
        </mxCell>
        <mxCell id="5dntn2dUdffPDas5DT_r-38" value="" style="endArrow=classic;html=1;rounded=0;fontSize=14;fontColor=#330000;exitX=1;exitY=0.5;exitDx=0;exitDy=0;" edge="1" parent="1" source="5dntn2dUdffPDas5DT_r-27" target="5dntn2dUdffPDas5DT_r-29">
          <mxGeometry width="50" height="50" relative="1" as="geometry">
            <mxPoint x="957" y="600" as="sourcePoint" />
            <mxPoint x="1007" y="550" as="targetPoint" />
          </mxGeometry>
        </mxCell>
        <mxCell id="5dntn2dUdffPDas5DT_r-39" value="" style="endArrow=classic;html=1;rounded=0;fontSize=14;fontColor=#330000;exitX=0.5;exitY=1;exitDx=0;exitDy=0;entryX=0.5;entryY=0;entryDx=0;entryDy=0;" edge="1" parent="1" source="5dntn2dUdffPDas5DT_r-29" target="5dntn2dUdffPDas5DT_r-28">
          <mxGeometry width="50" height="50" relative="1" as="geometry">
            <mxPoint x="1309" y="979" as="sourcePoint" />
            <mxPoint x="1391" y="980.8275193798452" as="targetPoint" />
          </mxGeometry>
        </mxCell>
        <mxCell id="5dntn2dUdffPDas5DT_r-40" value="superset-ui-chart-controls&lt;br&gt;src/shared-controls/index.tsx" style="rounded=0;whiteSpace=wrap;html=1;labelBackgroundColor=default;fontSize=16;fontColor=#000000;" vertex="1" parent="1">
          <mxGeometry x="1199" y="1028.5" width="440" height="66" as="geometry" />
        </mxCell>
        <mxCell id="5dntn2dUdffPDas5DT_r-41" value="&lt;span&gt;superset-ui-chart-controls&lt;br&gt;&lt;/span&gt;src/utils/expandControlConfig.tsx" style="rounded=0;whiteSpace=wrap;html=1;labelBackgroundColor=default;fontSize=16;fontColor=#000000;" vertex="1" parent="1">
          <mxGeometry x="667" y="1034" width="415" height="55" as="geometry" />
        </mxCell>
        <mxCell id="5dntn2dUdffPDas5DT_r-42" value="" style="endArrow=classic;html=1;rounded=0;fontSize=16;fontColor=#000000;exitX=0.5;exitY=1;exitDx=0;exitDy=0;entryX=0.5;entryY=0;entryDx=0;entryDy=0;" edge="1" parent="1" source="5dntn2dUdffPDas5DT_r-28" target="5dntn2dUdffPDas5DT_r-41">
          <mxGeometry width="50" height="50" relative="1" as="geometry">
            <mxPoint x="847" y="1227" as="sourcePoint" />
            <mxPoint x="897" y="1177" as="targetPoint" />
          </mxGeometry>
        </mxCell>
        <mxCell id="5dntn2dUdffPDas5DT_r-44" value="" style="endArrow=diamondThin;endFill=0;endSize=24;html=1;rounded=0;fontSize=16;fontColor=#000000;exitX=0;exitY=0.5;exitDx=0;exitDy=0;entryX=1;entryY=0.5;entryDx=0;entryDy=0;" edge="1" parent="1" source="5dntn2dUdffPDas5DT_r-40" target="5dntn2dUdffPDas5DT_r-41">
          <mxGeometry width="160" relative="1" as="geometry">
            <mxPoint x="792" y="1199" as="sourcePoint" />
            <mxPoint x="952" y="1199" as="targetPoint" />
          </mxGeometry>
        </mxCell>
      </root>
    </mxGraphModel>
  </diagram>
</mxfile>
